#!OML:ASF X:\für Bonn\!DataBase\2005_08_10_Bjorn_Final\c3d\bjorn.ASF
:FULLY-SPECIFIED
:DEGREES
78
root -31.7125 18.1248 6.45412 -170.797 -229.145 -181.921
lowerback -0.02105 -2.69477 -3.39666
upperback 8.08418 -3.2835 -0.672397
thorax 8.66736 -1.77898 0.940613
lowerneck -4.21637 1.63574 0.803344
upperneck 3.44764 2.04008 2.39528
head 1.77096 1.08697 0.670483
rclavicle 4.25399e-014 -1.27222e-014
rhumerus -55.6151 4.08766 -96.3866
rradius 71.4005
rwrist -22.6838
rhand -24.6608 20.1407
rfingers 7.12502
rthumb 1.83914 -9.83112
lclavicle 4.25399e-014 -1.27222e-014
lhumerus -31.5677 -36.8341 82.8419
lradius 87.0707
lwrist 1.00722
lhand -35.527 -16.1329
lfingers 7.12502
lthumb -8.65337 13.6697
rfemur -50.2997 -10.2145 17.9375
rtibia 62.5036
rfoot -20.0525 16.3739
rtoes -16.463
lfemur 6.62672 9.20757 -19.0187
ltibia 25.2103
lfoot -22.5001 -3.22994
ltoes -29.1293
79
root -31.5903 18.143 6.58348 -170.569 -229.297 -182.036
lowerback -0.200449 -2.79434 -3.34318
upperback 7.95871 -3.43862 -0.420002
thorax 8.65538 -1.86284 1.15868
lowerneck -4.23706 1.72567 0.543336
upperneck 3.2982 2.18439 2.22314
head 1.7239 1.14969 0.663041
rclavicle 6.08281e-014 -5.56597e-015
rhumerus -55.8726 4.1307 -96.024
rradius 72.1963
rwrist -22.1906
rhand -24.8501 20.4008
rfingers 7.12502
rthumb 1.65631 -9.57249
lclavicle 6.08281e-014 -5.56597e-015
lhumerus -32.3454 -37.6013 83.5858
lradius 86.4831
lwrist 1.17713
lhand -35.1913 -16.0816
lfingers 7.12502
lthumb -8.32938 13.7342
rfemur -50.9438 -10.7592 18.3484
rtibia 62.3801
rfoot -19.9368 16.1688
rtoes -17.7325
lfemur 7.2352 9.09263 -18.7764
ltibia 24.3512
lfoot -21.5733 -3.14968
ltoes -30.9409
80
root -31.4643 18.1628 6.71753 -170.416 -229.412 -182.258
lowerback -0.388441 -2.87587 -3.21038
upperback 7.83714 -3.57208 -0.181713
thorax 8.6459 -1.92966 1.31869
lowerneck -4.20506 1.8192 0.481435
upperneck 3.00333 2.33065 1.89269
head 1.62424 1.21153 0.570373
rclavicle 7.11649e-014 -2.38542e-015
rhumerus -56.0258 4.14366 -95.6953
rradius 72.9255
rwrist -21.6651
rhand -24.9171 20.6258
rfingers 7.12502
rthumb 1.59163 -9.34803
lclavicle 7.11649e-014 -2.38542e-015
lhumerus -33.0622 -38.3966 84.3298
lradius 85.7865
lwrist 1.3883
lhand -34.8621 -16.03
lfingers 7.12502
lthumb -8.01165 13.7981
rfemur -51.501 -11.2251 18.8434
rtibia 62.1667
rfoot -19.7228 16.0789
rtoes -18.7041
lfemur 7.86957 8.93827 -18.4801
ltibia 23.459
lfoot -20.5828 -3.06382
ltoes -32.6558
81
root -31.3343 18.1836 6.85311 -170.386 -229.552 -182.649
lowerback -0.567196 -2.93329 -2.88649
upperback 7.72447 -3.68065 0.0221446
thorax 8.62281 -1.969 1.3386
lowerneck -4.25142 1.89374 0.598123
upperneck 2.72316 2.44073 1.50873
head 1.54703 1.2576 0.431747
rclavicle 4.01545e-014 -3.49861e-014
rhumerus -56.1095 4.00751 -95.4333
rradius 73.5542
rwrist -21.0391
rhand -24.9908 20.917
rfingers 7.12502
rthumb 1.52043 -9.0573
lclavicle 4.01545e-014 -3.49861e-014
lhumerus -33.7198 -39.2688 85.0322
lradius 84.9468
lwrist 1.48471
lhand -34.6417 -16.0582
lfingers 7.12502
lthumb -7.79893 13.7779
rfemur -51.9296 -11.6758 19.4402
rtibia 61.872
rfoot -19.1921 16.4822
rtoes -18.0393
lfemur 8.47875 8.6694 -18.0688
ltibia 22.5456
lfoot -19.4504 -3.14148
ltoes -33.557
82
root -31.202 18.2069 6.99087 -170.437 -229.668 -183.145
lowerback -0.705706 -2.98955 -2.49325
upperback 7.5946 -3.79395 0.234171
thorax 8.55267 -2.00598 1.3306
lowerneck -4.29456 1.9868 0.760159
upperneck 2.41207 2.57283 1.09829
head 1.46141 1.31495 0.27827
rclavicle -4.65156e-014 2.06736e-014
rhumerus -56.1497 3.92053 -95.1863
rradius 74.1035
rwrist -20.2994
rhand -25.0247 21.2034
rfingers 7.12502
rthumb 1.48771 -8.77117
lclavicle -4.65156e-014 2.06736e-014
lhumerus -34.4456 -40.1027 85.785
lradius 83.9977
lwrist 1.61703
lhand -34.5159 -16.2851
lfingers 7.12502
lthumb -7.67749 13.5555
rfemur -52.2665 -12.0776 20.11
rtibia 61.5191
rfoot -18.3217 17.1268
rtoes -15.7944
lfemur 9.05407 8.40661 -17.5783
ltibia 21.65
lfoot -18.2543 -3.26434
ltoes -34.2303
83
root -31.0661 18.2299 7.13078 -170.515 -229.768 -183.649
lowerback -0.844442 -3.02396 -2.06324
upperback 7.4746 -3.87811 0.423589
thorax 8.48756 -2.02539 1.28033
lowerneck -4.47816 2.07175 0.939317
upperneck 2.29366 2.68663 0.730088
head 1.4632 1.36579 0.138593
rclavicle 5.52621e-014 -1.66979e-014
rhumerus -56.1247 3.80801 -94.9661
rradius 74.5418
rwrist -19.6032
rhand -25.0394 21.5159
rfingers 7.12502
rthumb 1.4735 -8.45875
lclavicle 5.52621e-014 -1.66979e-014
lhumerus -35.1536 -40.9281 86.5949
lradius 82.8754
lwrist 1.78983
lhand -34.4506 -16.6593
lfingers 7.12502
lthumb -7.61453 13.1836
rfemur -52.5416 -12.5224 20.8426
rtibia 61.1445
rfoot -17.4272 17.4762
rtoes -13.8437
lfemur 9.63038 8.14103 -17.0944
ltibia 20.8141
lfoot -17.0167 -3.37537
ltoes -34.7883
84
root -30.9273 18.2521 7.27175 -170.622 -229.87 -184.208
lowerback -0.964453 -3.0568 -1.56515
upperback 7.31708 -3.9644 0.603177
thorax 8.36449 -2.04105 1.18376
lowerneck -4.68456 2.17074 1.12452
upperneck 2.30302 2.81539 0.403763
head 1.51058 1.42537 0.0126857
rclavicle 5.76476e-014 -2.46493e-014
rhumerus -56.083 3.73252 -94.795
rradius 74.8991
rwrist -18.9372
rhand -25.066 21.7907
rfingers 7.12502
rthumb 1.44782 -8.18416
lclavicle 5.76476e-014 -2.46493e-014
lhumerus -35.995 -41.6862 87.4735
lradius 81.7135
lwrist 1.93641
lhand -34.205 -17.2682
lfingers 7.12502
lthumb -7.37745 12.5831
rfemur -52.7744 -12.9905 21.6659
rtibia 60.7561
rfoot -16.4958 17.585
rtoes -11.7622
lfemur 10.1683 7.86024 -16.5705
ltibia 20.025
lfoot -15.6893 -3.5715
ltoes -34.6876
85
root -30.7847 18.2748 7.41505 -170.725 -229.936 -184.735
lowerback -1.10815 -3.0612 -1.03685
upperback 7.1665 -4.01132 0.745304
thorax 8.2564 -2.03451 1.03276
lowerneck -4.80779 2.24036 1.24746
upperneck 2.30033 2.90624 0.183905
head 1.53749 1.46731 -0.072025
rclavicle -5.88403e-014 1.19271e-014
rhumerus -55.9905 3.67328 -94.6847
rradius 75.1887
rwrist -18.3297
rhand -25.2044 22.0755
rfingers 7.12502
rthumb 1.31417 -7.90021
lclavicle -5.88403e-014 1.19271e-014
lhumerus -36.9048 -42.3642 88.4313
lradius 80.517
lwrist 2.05599
lhand -34.0763 -17.6902
lfingers 7.12502
lthumb -7.25323 12.1655
rfemur -52.9198 -13.4432 22.4775
rtibia 60.3633
rfoot -15.5286 17.5175
rtoes -9.68243
lfemur 10.7235 7.58447 -16.0847
ltibia 19.2698
lfoot -14.3037 -3.68874
ltoes -34.4406
86
root -30.64 18.2983 7.56353 -170.817 -230.034 -185.206
lowerback -1.2474 -3.077 -0.60189
upperback 7.03237 -4.07108 0.927077
thorax 8.1749 -2.04262 0.973374
lowerneck -5.03483 2.30802 1.2514
upperneck 2.44671 2.99891 -0.0090149
head 1.62884 1.50978 -0.126079
rclavicle 7.95139e-015 -2.78299e-014
rhumerus -55.8369 3.66293 -94.493
rradius 75.4382
rwrist -17.778
rhand -25.3083 22.4891
rfingers 7.12502
rthumb 1.21381 -7.48716
lclavicle 7.95139e-015 -2.78299e-014
lhumerus -37.7925 -42.9162 89.4795
lradius 79.2401
lwrist 2.14898
lhand -33.887 -18.0214
lfingers 7.12502
lthumb -7.07053 11.8405
rfemur -52.9572 -13.8727 23.229
rtibia 59.9633
rfoot -14.5189 17.2456
rtoes -7.48643
lfemur 11.2939 7.31315 -15.5942
ltibia 18.5764
lfoot -12.8816 -3.78562
ltoes -34.4023
87
root -30.4928 18.3191 7.71351 -170.71 -230.121 -185.395
lowerback -1.35723 -3.10312 -0.347643
upperback 6.85436 -4.13241 1.06992
thorax 8.03928 -2.06264 0.975856
lowerneck -5.13925 2.39605 1.25152
upperneck 2.65946 3.12254 -0.236814
head 1.72133 1.56651 -0.190496
rclavicle 1.10524e-013 -8.74653e-015
rhumerus -55.6846 3.72489 -94.3258
rradius 75.6404
rwrist -17.3089
rhand -25.3948 22.9101
rfingers 7.12502
rthumb 1.13023 -7.06669
lclavicle 1.10524e-013 -8.74653e-015
lhumerus -38.8683 -43.3576 90.677
lradius 77.9465
lwrist 2.1715
lhand -33.6991 -18.2836
lfingers 7.12502
lthumb -6.88914 11.5843
rfemur -52.9187 -14.3332 23.759
rtibia 59.5636
rfoot -13.53 16.8546
rtoes -5.41127
lfemur 11.8581 7.01826 -15.3168
ltibia 17.9348
lfoot -11.3892 -3.81638
ltoes -34.9308
88
root -30.3436 18.3395 7.86665 -170.426 -230.192 -185.489
lowerback -1.58901 -3.10676 -0.132784
upperback 6.64618 -4.16136 1.18772
thorax 7.94264 -2.06864 0.970441
lowerneck -5.17716 2.46018 1.2726
upperneck 2.86407 3.21562 -0.485438
head 1.8006 1.60734 -0.266889
rclavicle 4.96962e-014 -5.12864e-014
rhumerus -55.4973 3.71286 -94.1427
rradius 75.8802
rwrist -16.8006
rhand -25.3839 23.3741
rfingers 7.12502
rthumb 1.14081 -6.60255
lclavicle 4.96962e-014 -5.12864e-014
lhumerus -39.8813 -43.7462 91.9308
lradius 76.542
lwrist 2.09784
lhand -33.4729 -18.387
lfingers 7.12502
lthumb -6.67076 11.4879
rfemur -52.9471 -14.7177 24.2097
rtibia 59.2292
rfoot -12.8603 16.2378
rtoes -4.73448
lfemur 12.1014 6.66903 -15.1361
ltibia 17.699
lfoot -9.89108 -3.86875
ltoes -35.0608
89
root -30.1914 18.3583 8.02123 -170.32 -230.26 -185.753
lowerback -1.80212 -3.08622 0.213722
upperback 6.45303 -4.16688 1.33109
thorax 7.84338 -2.05589 0.921362
lowerneck -5.16482 2.49603 1.35094
upperneck 3.01463 3.27197 -0.816289
head 1.85638 1.62826 -0.381114
rclavicle -6.06293e-014 1.19271e-014
rhumerus -55.2293 3.73248 -93.9773
rradius 76.17
rwrist -16.343
rhand -25.4479 23.6693
rfingers 7.12502
rthumb 1.07902 -6.30775
lclavicle -6.06293e-014 1.19271e-014
lhumerus -40.8697 -44.1276 93.2478
lradius 75.0875
lwrist 2.14256
lhand -33.31 -18.4417
lfingers 7.12502
lthumb -6.51346 11.4381
rfemur -52.8064 -15.0112 24.704
rtibia 58.8794
rfoot -12.4322 15.5555
rtoes -5.0021
lfemur 12.337 6.1364 -14.8985
ltibia 17.5951
lfoot -8.43149 -3.78231
ltoes -35.1911
